<?xml version="1.0" encoding="utf-8"?>
<!-- Generator: Adobe Illustrator 22.0.1, SVG Export Plug-In . SVG Version: 6.00 Build 0)  -->
<svg version="1.1" id="Layer_1_1_" xmlns="http://www.w3.org/2000/svg" xmlns:xlink="http://www.w3.org/1999/xlink" x="0px" y="0px"
	 viewBox="0 0 2850 1800" enable-background="new 0 0 2850 1800" xml:space="preserve">
<linearGradient id="SVGID_1_" gradientUnits="userSpaceOnUse" x1="1425" y1="14.6183" x2="1425" y2="733.1777">
	<stop  offset="0" style="stop-color:#FFB552"/>
	<stop  offset="1" style="stop-color:#FFF89F"/>
</linearGradient>
<rect fill="url(#SVGID_1_)" width="2850" height="1800"/>
<g>
	<g opacity="0.3">
		<path fill="#FFF89F" d="M2850,367.541c-95.8-23.458-180.554,37.913-215.266,130.232c-73.572-22.853-161.066,15.296-194.388,84.756
			c-32.733-22.89-84-11.747-104.278,22.666c-62.035-82.874-190.856-105.891-277.752-49.628
			c-15.952-59.169-63.011-107.059-118.694-132.649s-119.112-30.656-180.015-23.851c-67.799,7.575-137.88,32.193-179.425,86.305
			c-54.446-29.678-129.476-13.635-167.025,35.713c-105.523-32.99-231.317,23.884-276.254,124.899
			c-46.397-69.683-120.462-120.382-202.212-138.418c-81.75-18.036-170.272-3.207-241.682,40.486
			c-44.116-51.145-131.225-58.941-181.477-13.809c-53.626-22.46-115.643-24.161-170.42-4.673
			c-54.777,19.488-101.784,59.976-129.175,111.259C153.792,593.92,72.79,576.841,0.656,596.281v482.716H2850V367.541z"/>
	</g>
	<g opacity="0.3">
		<path fill="#FFF89F" d="M1087.853,348.624c18.553-10.894,14.541-41.678-2.792-54.424c-17.333-12.746-41.066-11.862-62.188-7.768
			c22.206-33.879,18.42-82.569-8.756-112.608c-29.486-32.592-78.875-40.044-122.036-31.745
			c-48.365,9.299-93.169,36.106-124.23,74.326c-13.064-17.707-36.657-26.964-58.277-22.867c-21.62,4.097-40.19,21.345-45.869,42.604
			c-47.782-26.773-114.837-7.12-143.186,39.745c-28.348,46.865-16.31,113.075,24.726,149.351
			c39.577,34.987,101.204,40.564,148.167,16.486c6.029,29.511,41.009,47.728,71.322,43.039c31.644-4.895,57.51-27.962,77.102-53.289
			c11.347,20.894,38.072,30.252,61.467,26.006s43.429-19.794,58.437-38.235c3.673,32.302,41.502,49.638,74.006,49.027
			c31.636-0.595,65.136-14.261,80.116-42.132C1130.841,398.268,1118.503,356.483,1087.853,348.624z"/>
	</g>
	<g opacity="0.3">
		<path fill="#FFF89F" d="M1831.682,264.758c-0.87-26.838-36.687-45.085-58.908-30.01c9.772-12.266,8.299-31.993-3.187-42.671
			s-31.268-10.711-42.79-0.071c20.159-36.427-2.266-85.98-39.571-104.464s-83.078-11.216-120.11,7.809
			c-34.157,17.548-65.662,50.028-63.52,88.369c-11.826-26.61-51.65-32.34-74.322-14.067s-27.735,52.689-17.144,79.814
			c-15.521-17.933-49.555-4.997-54.39,18.222c-4.835,23.219,13.677,46.594,36.244,53.892c22.566,7.297,47.368,1.879,69.294-7.16
			l10.941-3.273c3.775,26.091,31.847,44.23,58.129,42.177c26.283-2.052,49.215-20.535,62.523-43.292
			c0.392,16.883,20.562,27.976,37.041,24.287c16.479-3.689,28.779-17.531,37.304-32.109c36.809,43.35,113.995,41.878,149.124-2.844
			C1826.136,289.439,1832.091,277.372,1831.682,264.758z"/>
	</g>
	<g opacity="0.3">
		<path fill="#FFF89F" d="M2814.136,220.336c4.669-14.042-1.755-30.939-14.574-38.332s-30.662-4.491-40.477,6.584
			c6.399-40.473-21.176-83.535-60.614-94.656c-31.018-8.747-64.185,0.788-93.826,13.438c-32.984,14.077-64.701,32.419-89.631,58.199
			s-42.679,59.621-44.414,95.442c-0.987-15.557-18.56-25.707-34.101-24.501s-29.166,10.38-41.98,19.255
			c2.259-13.087-6.515-27.165-19.259-30.902s-27.731,3.372-32.898,15.606c-10.098-46.218-67.396-71.196-112.526-57.004
			c-45.129,14.191-76.19,57.721-88.039,103.521c-9.028-12.584-27.068-17.77-41.401-11.903c-14.333,5.867-23.558,22.215-21.17,37.517
			c-15.649-12.143-39.783-14.187-54.91-1.399c-14.368,12.146-16.631,36.115-4.79,50.736c11.841,14.621,35.757,17.389,50.624,5.858
			l-3.69,7.065c9.967,18.765,30.594,31.376,51.84,31.692c21.246,0.317,42.24-11.673,52.762-30.133
			c23.392,17.714,61.29,11.102,77.301-13.488c19.056,17.233,38.37,34.649,61.072,46.68c22.703,12.03,49.522,18.3,74.375,11.783
			c27.319-7.163,49.174-29.265,60.605-55.09c2.918,9.86,17.311,11.797,25.76,5.935s12.303-16.225,15.678-25.939
			c26.946,29.439,65.053,50.198,104.961,50.036c39.908-0.162,80.402-24.064,94.187-61.517c22.865,16.426,60.578,2.091,66.758-25.376
			c18.981,10.463,43.518,9.998,62.089-1.177c18.571-11.175,30.473-32.637,30.118-54.308
			C2843.685,236.87,2830.932,217.171,2814.136,220.336z"/>
	</g>
	<g opacity="0.3">
		<path fill="#FFF89F" d="M370.166,265.894c-3.268-20.947-17.821-39.784-37.264-48.235s-43.144-6.24-60.689,5.66
			c12.318-14.628,4.93-38.705-10.422-50.108c-15.353-11.402-35.606-13.302-54.723-13.814c15.026-30.059,6.27-68.607-16.451-93.368
			c-22.72-24.761-56.994-36.756-90.582-37.816c-33.589-1.06-66.75,7.839-98.247,19.556L0.656,406.368
			c18.312,2.187,42.157-15.981,39.827-34.275c7.432,16.41,29.995,21.448,46.626,14.527s28.054-22.466,36.434-38.412
			c41.373,39.375,107.63,38.859,161.516,19.926c22.744-7.991,44.972-19.102,61.652-36.506
			C363.391,314.223,373.882,289.713,370.166,265.894z"/>
	</g>
</g>
<g>
	<g>
		<polygon fill="#FFAF50" points="2100.654,788.556 2242.053,630.105 2321.612,699.883 2403.815,729.345 2644.624,564.978 
			2850,647.161 2850,1078.996 2035.227,1078.996 		"/>
		<polygon fill="#EB9938" points="2085.416,770.374 2220.654,679.426 2260.944,717.414 2287.42,686.333 2379.512,736.983 
			2595.927,709.356 2595.927,646.043 2639.671,646.043 2625.857,593.09 2653.485,601.148 2644.276,565.462 2795.076,624.171 
			2834.761,659.86 2791.622,810.656 2820.401,804.901 2780.111,894.736 2834.761,877.423 2834.761,1060.815 2019.989,1060.815 		"/>
	</g>
	<g>
		<polygon fill="#FFAF50" points="336.59,1018.812 1012.722,741.322 1131.483,741.322 1272.185,646.853 1404.094,646.853 
			1468.873,703.534 1781.97,509.198 1889.935,482.207 2022.192,617.162 2143.652,644.154 2386.572,843.888 2778.534,1013.385 
			2576.623,1094.906 532.279,1094.906 		"/>
		<polygon fill="#EB9938" points="336.59,1018.812 993.673,801.063 1101.297,926.624 1137.171,810.032 1258.247,868.328 
			1298.606,724.83 1363.629,693.44 1428.651,745.01 1316.543,823.485 1639.413,718.104 1747.037,758.463 1747.037,655.323 
			1836.723,720.346 1847.933,576.128 1903.987,621.691 1912.956,576.128 2002.642,644.113 2134.929,686.714 2334.48,866.086 
			2276.185,922.14 2426.409,910.929 2718.368,1037.677 2576.623,1094.906 532.279,1094.906 		"/>
	</g>
	<g>
		<path fill="#D6872B" d="M426.458,1080.906c164.178-60.59,374.114-112.91,547.662-90.398
			c83.095,10.779,168.744,33.168,230.436,89.871"/>
	</g>
	<g>
		<path fill="#CC8129" d="M1360.547,1078.025c85.533-89.712,247.725-159.769,498.514-166.383
			c178.056-4.696,419.902,74.948,498.515,162.162"/>
	</g>
	<g>
		<path fill="#D6872B" d="M1868.604,1074.743c93.786-61.954,206.825-100.747,323.366-114.456c77-9.058,156.403-7.263,231.005,11.691
			c74.602,18.954,144.241,55.77,192.527,108.927"/>
	</g>
	<g>
		<path fill="#D6872B" d="M880.603,1076.357c31.949-25.071,71.047-39.149,110.054-50.449
			c216.949-62.844,457.727-49.061,660.255,50.932"/>
	</g>
</g>
<linearGradient id="SVGID_2_" gradientUnits="userSpaceOnUse" x1="1425" y1="1785.9191" x2="1425" y2="1082.3198">
	<stop  offset="0" style="stop-color:#FFB552"/>
	<stop  offset="0.2564" style="stop-color:#FFB855"/>
	<stop  offset="0.4735" style="stop-color:#FFC160"/>
	<stop  offset="0.6764" style="stop-color:#FFD071"/>
	<stop  offset="0.8695" style="stop-color:#FFE68A"/>
	<stop  offset="1" style="stop-color:#FFF89F"/>
</linearGradient>
<rect y="1078.996" fill="url(#SVGID_2_)" width="2850" height="721.004"/>
<g>
	<polygon fill="#A14118" points="0,951.005 595.749,1037.821 721.633,1115.956 1190.44,1165.875 1342.368,1267.884 
		1413.992,1276.566 1492.126,1359.041 1355.391,1415.472 0,1356.871 	"/>
	<polygon fill="#DB6532" points="0,951.005 595.749,1037.821 721.633,1115.956 1190.44,1165.875 1342.368,1267.884 
		1413.992,1276.566 1492.126,1359.041 1456.27,1373.839 1388.049,1301.957 1240.359,1311.292 1283.078,1267.884 1193.44,1210.258 
		1134.741,1241.629 1138.182,1203.134 703.415,1146.31 587.167,1055.841 	"/>
</g>
<g>
	<polygon fill="#A14118" points="168.079,937.535 171.251,1044.664 158.945,1045.414 160.481,934.278 	"/>
	<polygon fill="#A14118" points="159.12,958.252 129.057,944.678 122,925.389 104.749,913.244 104.749,887.883 119.647,873.594 
		115.335,865.736 127.097,850.376 163.167,836.802 174.145,842.16 184.731,835.016 201.337,837.517 227.314,859.051 224.64,875.497 
		238.68,889.913 244.028,914.887 222.18,939.488 200.414,944.321 188.76,958.252 	"/>
	<polygon fill="#A14118" points="119.647,873.594 104.749,887.883 104.749,913.244 122,925.389 129.057,944.678 159.12,958.252 
		188.76,958.252 200.414,944.321 222.18,939.488 202.626,931.867 207.301,919.159 197.639,902.225 189.847,900.043 186.73,882.705 
		168.656,871.301 149.952,872.927 132.81,879.982 	"/>
	<polygon fill="#A14118" points="104.749,887.883 104.749,913.244 122,925.389 129.057,944.678 159.12,958.252 188.76,958.252 
		200.414,944.321 186.622,951.452 169.79,947.507 168.656,931.282 155.063,935.146 142.177,931.282 141.651,916.211 
		128.603,915.963 113.511,908.847 	"/>
	<polygon fill="#A14118" points="127.097,850.376 163.167,841.616 171.454,844.467 187.338,840.634 200.095,844.467 
		217.813,866.184 217.813,884.611 235.766,893.588 238.129,914.849 222.18,939.488 244.028,914.887 238.68,889.913 224.64,875.497 
		227.314,859.051 201.337,837.517 184.731,835.016 174.145,842.16 163.167,836.802 	"/>
	<polygon fill="#A14118" points="163.167,836.802 171.454,844.467 174.145,842.16 	"/>
	<polygon fill="#A14118" points="201.337,837.517 221.519,861.176 227.314,859.051 	"/>
	<polygon fill="#A14118" points="224.64,875.497 223.746,883.447 238.68,889.913 	"/>
</g>
<g>
	<polygon fill="#A14118" points="398.098,937.909 400.245,1010.412 391.916,1010.919 392.956,935.705 	"/>
	<polygon fill="#A14118" points="392.034,951.93 371.689,942.744 366.913,929.689 355.237,921.47 355.237,904.305 365.321,894.635 
		362.402,889.317 370.362,878.922 394.774,869.735 402.203,873.361 409.368,868.526 420.606,870.219 438.187,884.793 
		436.377,895.923 445.879,905.68 449.499,922.582 434.712,939.231 419.981,942.502 412.094,951.93 	"/>
	<polygon fill="#A14118" points="365.321,894.635 355.237,904.305 355.237,921.47 366.913,929.689 371.689,942.744 392.034,951.93 
		412.094,951.93 419.981,942.502 434.712,939.231 421.479,934.073 424.643,925.473 418.104,914.012 412.83,912.536 410.721,900.802 
		398.489,893.083 385.83,894.184 374.228,898.959 	"/>
	<polygon fill="#A14118" points="355.237,904.305 355.237,921.47 366.913,929.689 371.689,942.744 392.034,951.93 412.094,951.93 
		419.981,942.502 410.647,947.328 399.256,944.658 398.489,933.677 389.289,936.293 380.568,933.677 380.212,923.478 
		371.381,923.31 361.167,918.494 	"/>
	<polygon fill="#A14118" points="370.362,878.922 394.774,872.993 400.382,874.922 411.132,872.329 419.766,874.922 431.757,889.62 
		431.757,902.091 443.908,908.166 445.506,922.555 434.712,939.231 449.499,922.582 445.879,905.68 436.377,895.923 
		438.187,884.793 420.606,870.219 409.368,868.526 402.203,873.361 394.774,869.735 	"/>
	<polygon fill="#A14118" points="394.774,869.735 400.382,874.922 402.203,873.361 	"/>
	<polygon fill="#A14118" points="420.606,870.219 434.265,886.231 438.187,884.793 	"/>
	<polygon fill="#A14118" points="436.377,895.923 435.773,901.303 445.879,905.68 	"/>
</g>
<g>
	<polygon fill="#A14118" points="1024.145,1143.626 1026.251,1214.768 1018.079,1215.266 1019.099,1141.463 	"/>
	<polygon fill="#A14118" points="1018.195,1157.384 998.231,1148.37 993.545,1135.56 982.088,1127.495 982.088,1110.652 
		991.982,1101.164 989.118,1095.945 996.929,1085.745 1020.883,1076.73 1028.173,1080.289 1035.203,1075.544 1046.231,1077.205 
		1063.482,1091.506 1061.706,1102.427 1071.03,1112.001 1074.582,1128.586 1060.073,1144.922 1045.618,1148.132 1037.879,1157.384 	
		"/>
	<polygon fill="#A14118" points="991.982,1101.164 982.088,1110.652 982.088,1127.495 993.545,1135.56 998.231,1148.37 
		1018.195,1157.384 1037.879,1157.384 1045.618,1148.132 1060.073,1144.922 1047.087,1139.862 1050.192,1131.422 1043.775,1120.177 
		1038.601,1118.728 1036.531,1107.214 1024.528,1099.641 1012.107,1100.721 1000.723,1105.406 	"/>
	<polygon fill="#A14118" points="982.088,1110.652 982.088,1127.495 993.545,1135.56 998.231,1148.37 1018.195,1157.384 
		1037.879,1157.384 1045.618,1148.132 1036.459,1152.867 1025.281,1150.248 1024.528,1139.473 1015.501,1142.039 1006.944,1139.473 
		1006.594,1129.465 997.93,1129.3 987.907,1124.575 	"/>
	<polygon fill="#A14118" points="996.929,1085.745 1020.883,1079.927 1026.386,1081.82 1036.935,1079.275 1045.406,1081.82 
		1057.172,1096.243 1057.172,1108.479 1069.095,1114.441 1070.664,1128.56 1060.073,1144.922 1074.582,1128.586 1071.03,1112.001 
		1061.706,1102.427 1063.482,1091.506 1046.231,1077.205 1035.203,1075.544 1028.173,1080.289 1020.883,1076.73 	"/>
	<polygon fill="#A14118" points="1020.883,1076.73 1026.386,1081.82 1028.173,1080.289 	"/>
	<polygon fill="#A14118" points="1046.231,1077.205 1059.634,1092.917 1063.482,1091.506 	"/>
	<polygon fill="#A14118" points="1061.706,1102.427 1061.113,1107.706 1071.03,1112.001 	"/>
</g>
<g>
	<polygon fill="#A14118" points="611.292,1034.769 608.992,1112.482 617.919,1113.026 616.804,1032.407 	"/>
	<polygon fill="#A14118" points="617.792,1049.798 639.6,1039.951 644.719,1025.959 657.233,1017.148 657.233,998.751 
		646.425,988.386 649.554,982.685 641.022,971.543 614.856,961.696 606.892,965.583 599.213,960.401 587.167,962.215 
		568.323,977.836 570.263,989.766 560.078,1000.224 556.198,1018.34 572.047,1036.186 587.837,1039.692 596.29,1049.798 	"/>
	<polygon fill="#A14118" points="646.425,988.386 657.233,998.751 657.233,1017.148 644.719,1025.959 639.6,1039.951 
		617.792,1049.798 596.29,1049.798 587.837,1039.692 572.047,1036.186 586.232,1030.658 582.84,1021.439 589.849,1009.155 
		595.502,1007.572 597.763,994.995 610.874,986.722 624.442,987.902 636.877,993.02 	"/>
	<polygon fill="#A14118" points="657.233,998.751 657.233,1017.148 644.719,1025.959 639.6,1039.951 617.792,1049.798 
		596.29,1049.798 587.837,1039.692 597.841,1044.865 610.051,1042.003 610.874,1030.233 620.734,1033.037 630.083,1030.233 
		630.464,1019.301 639.929,1019.121 650.877,1013.959 	"/>
	<polygon fill="#A14118" points="641.022,971.543 614.856,965.188 608.844,967.256 597.322,964.476 588.068,967.256 
		575.215,983.011 575.215,996.377 562.191,1002.889 560.477,1018.312 572.047,1036.186 556.198,1018.34 560.078,1000.224 
		570.263,989.766 568.323,977.836 587.167,962.215 599.213,960.401 606.892,965.583 614.856,961.696 	"/>
	<polygon fill="#A14118" points="614.856,961.696 608.844,967.256 606.892,965.583 	"/>
	<polygon fill="#A14118" points="587.167,962.215 572.526,979.377 568.323,977.836 	"/>
	<polygon fill="#A14118" points="570.263,989.766 570.911,995.533 560.078,1000.224 	"/>
</g>
<g>
	<polygon fill="#A14118" points="2126.194,1089.082 2123.689,1173.7 2133.409,1174.293 2132.196,1086.51 	"/>
	<polygon fill="#A14118" points="2133.271,1105.446 2157.017,1094.724 2162.591,1079.489 2176.217,1069.896 2176.217,1049.863 
		2164.449,1038.577 2167.856,1032.37 2158.565,1020.237 2130.074,1009.516 2121.403,1013.748 2113.042,1008.105 2099.925,1010.08 
		2079.406,1027.09 2081.519,1040.08 2070.429,1051.467 2066.204,1071.193 2083.462,1090.625 2100.654,1094.442 2109.859,1105.446 	
		"/>
	<polygon fill="#A14118" points="2164.449,1038.577 2176.217,1049.863 2176.217,1069.896 2162.591,1079.489 2157.017,1094.724 
		2133.271,1105.446 2109.859,1105.446 2100.654,1094.442 2083.462,1090.625 2098.907,1084.605 2095.214,1074.567 2102.846,1061.192 
		2109,1059.468 2111.462,1045.773 2125.739,1036.765 2140.513,1038.05 2154.053,1043.623 	"/>
	<polygon fill="#A14118" points="2176.217,1049.863 2176.217,1069.896 2162.591,1079.489 2157.017,1094.724 2133.271,1105.446 
		2109.859,1105.446 2100.654,1094.442 2111.548,1100.075 2124.843,1096.959 2125.739,1084.143 2136.476,1087.195 2146.654,1084.143 
		2147.07,1072.239 2157.376,1072.043 2169.297,1066.422 	"/>
	<polygon fill="#A14118" points="2158.565,1020.237 2130.074,1013.318 2123.529,1015.57 2110.982,1012.543 2100.906,1015.57 
		2086.911,1032.724 2086.911,1047.278 2072.73,1054.369 2070.864,1071.163 2083.462,1090.625 2066.204,1071.193 2070.429,1051.467 
		2081.519,1040.08 2079.406,1027.09 2099.925,1010.08 2113.042,1008.105 2121.403,1013.748 2130.074,1009.516 	"/>
	<polygon fill="#A14118" points="2130.074,1009.516 2123.529,1015.57 2121.403,1013.748 	"/>
	<polygon fill="#A14118" points="2099.925,1010.08 2083.983,1028.768 2079.406,1027.09 	"/>
	<polygon fill="#A14118" points="2081.519,1040.08 2082.224,1046.359 2070.429,1051.467 	"/>
</g>
<g>
	<polygon fill="#A14118" points="2352.214,1030.465 2350.42,1091.062 2357.381,1091.487 2356.512,1028.623 	"/>
	<polygon fill="#A14118" points="2357.282,1042.184 2374.287,1034.505 2378.279,1023.595 2388.037,1016.725 2388.037,1002.379 
		2379.609,994.297 2382.049,989.852 2375.396,981.163 2354.992,973.485 2348.783,976.516 2342.795,972.475 2333.402,973.889 
		2318.708,986.07 2320.22,995.373 2312.279,1003.528 2309.253,1017.654 2321.612,1031.569 2333.924,1034.303 2340.516,1042.184 	"/>
	<polygon fill="#A14118" points="2379.609,994.297 2388.037,1002.379 2388.037,1016.725 2378.279,1023.595 2374.287,1034.505 
		2357.282,1042.184 2340.516,1042.184 2333.924,1034.303 2321.612,1031.569 2332.673,1027.259 2330.028,1020.07 2335.493,1010.492 
		2339.901,1009.258 2341.664,999.45 2351.887,992.999 2362.468,993.919 2372.164,997.91 	"/>
	<polygon fill="#A14118" points="2388.037,1002.379 2388.037,1016.725 2378.279,1023.595 2374.287,1034.505 2357.282,1042.184 
		2340.516,1042.184 2333.924,1034.303 2341.725,1038.337 2351.246,1036.105 2351.887,1026.928 2359.576,1029.114 2366.866,1026.928 
		2367.163,1018.403 2374.544,1018.263 2383.081,1014.238 	"/>
	<polygon fill="#A14118" points="2375.396,981.163 2354.992,976.208 2350.305,977.82 2341.32,975.653 2334.104,977.82 
		2324.082,990.105 2324.082,1000.528 2313.927,1005.606 2312.59,1017.632 2321.612,1031.569 2309.253,1017.654 2312.279,1003.528 
		2320.22,995.373 2318.708,986.07 2333.402,973.889 2342.795,972.475 2348.783,976.516 2354.992,973.485 	"/>
	<polygon fill="#A14118" points="2354.992,973.485 2350.305,977.82 2348.783,976.516 	"/>
	<polygon fill="#A14118" points="2333.402,973.889 2321.985,987.272 2318.708,986.07 	"/>
	<polygon fill="#A14118" points="2320.22,995.373 2320.726,999.87 2312.279,1003.528 	"/>
</g>
<g>
	<g>
		<polygon fill="#A14118" points="1188.82,1160.262 1194.248,1267.264 1173.542,1267.264 1180.838,1156.107 		"/>
	</g>
	<polygon fill="#A14118" points="1199.842,1031.421 1231.239,1046.981 1238.61,1069.093 1256.627,1083.015 1256.627,1112.087 
		1241.067,1128.466 1245.571,1137.475 1233.286,1155.082 1195.615,1170.642 1184.15,1164.5 1173.094,1172.689 1155.75,1169.823 
		1128.62,1145.138 1131.413,1126.285 1116.75,1109.76 1111.164,1081.131 1133.982,1052.931 1156.715,1047.39 1168.886,1031.421 	"/>
	<polygon fill="#A14118" points="1111.164,1081.131 1116.75,1109.76 1131.413,1126.285 1128.62,1145.138 1155.75,1169.823 
		1173.094,1172.689 1184.15,1164.5 1195.615,1170.642 1233.286,1155.082 1245.571,1137.475 1235.204,1114.252 1212.756,1111.871 
		1215.541,1097.153 1204.47,1073.562 1175.468,1062.956 1155.75,1069.093 1139.539,1065.121 	"/>
	<polygon fill="#A14118" points="1137.195,1111.597 1145.37,1134.804 1163.302,1141.396 1176.488,1135.595 1155.75,1129.495 	"/>
	<polygon fill="#A14118" points="1111.164,1081.131 1116.75,1109.76 1131.413,1126.285 1128.62,1145.138 1155.75,1169.823 
		1173.094,1172.689 1184.15,1164.5 1195.615,1170.642 1233.286,1155.082 1197.628,1162.047 1186.157,1152.158 1172.225,1158.289 
		1156.842,1154.334 1152.139,1139.698 1145.414,1147.609 1135.328,1140.489 1137.195,1120.711 1119.901,1107.064 	"/>
	<polygon fill="#A14118" points="1168.886,1031.421 1198.064,1036.908 1224.881,1051.392 1241.127,1087.213 1254.046,1091.519 
		1254.046,1110.31 1241.067,1128.466 1256.627,1112.087 1256.627,1083.015 1238.61,1069.093 1231.239,1046.981 1199.842,1031.421 	
		"/>
	<polygon fill="#A14118" points="1199.842,1031.421 1224.881,1051.392 1231.239,1046.981 	"/>
	<polygon fill="#A14118" points="1238.61,1069.093 1243.034,1079.944 1256.627,1083.015 	"/>
	<polygon fill="#A14118" points="1241.067,1128.466 1231.239,1133.359 1245.571,1137.475 	"/>
</g>
<g>
	<polygon fill="#A14118" points="2279.468,998.135 2281.456,1065.299 2273.74,1065.769 2274.704,996.093 	"/>
	<polygon fill="#A14118" points="2266.815,1015.538 2247.967,1007.028 2243.543,994.934 2232.727,987.32 2232.727,971.42 
		2242.068,962.462 2239.364,957.535 2246.738,947.905 2269.353,939.395 2276.235,942.754 2282.872,938.275 2293.283,939.843 
		2309.569,953.344 2307.893,963.655 2316.695,972.693 2320.048,988.35 2306.35,1003.773 2292.704,1006.804 2285.398,1015.538 	"/>
	<polygon fill="#A14118" points="2242.068,962.462 2232.727,971.42 2232.727,987.32 2243.543,994.934 2247.967,1007.028 
		2266.815,1015.538 2285.398,1015.538 2292.704,1006.804 2306.35,1003.773 2294.091,998.996 2297.022,991.028 2290.964,980.411 
		2286.079,979.044 2284.125,968.174 2272.794,961.024 2261.067,962.043 2250.32,966.467 	"/>
	<polygon fill="#A14118" points="2232.727,971.42 2232.727,987.32 2243.543,994.934 2247.967,1007.028 2266.815,1015.538 
		2285.398,1015.538 2292.704,1006.804 2284.057,1011.274 2273.505,1008.801 2272.794,998.629 2264.272,1001.051 2256.192,998.629 
		2255.863,989.18 2247.683,989.025 2238.22,984.563 	"/>
	<polygon fill="#A14118" points="2246.738,947.905 2269.353,942.413 2274.548,944.2 2284.507,941.797 2292.504,944.2 
		2303.612,957.816 2303.612,969.368 2314.868,974.996 2316.349,988.326 2306.35,1003.773 2320.048,988.35 2316.695,972.693 
		2307.893,963.655 2309.569,953.344 2293.283,939.843 2282.872,938.275 2276.235,942.754 2269.353,939.395 	"/>
	<polygon fill="#A14118" points="2269.353,939.395 2274.548,944.2 2276.235,942.754 	"/>
	<polygon fill="#A14118" points="2293.283,939.843 2305.936,954.676 2309.569,953.344 	"/>
	<polygon fill="#A14118" points="2307.893,963.655 2307.333,968.639 2316.695,972.693 	"/>
</g>
<g>
	<g>
		<polygon fill="#A14118" points="2473.888,1003.308 2479.012,1104.326 2459.464,1104.326 2466.352,999.385 		"/>
	</g>
	<polygon fill="#A14118" points="2484.293,881.672 2513.934,896.362 2520.893,917.237 2537.902,930.381 2537.902,957.827 
		2523.212,973.29 2527.464,981.795 2515.867,998.418 2480.302,1013.108 2469.478,1007.309 2459.041,1015.041 2442.667,1012.335 
		2417.054,989.029 2419.691,971.231 2405.848,955.63 2400.574,928.602 2422.116,901.979 2443.578,896.749 2455.068,881.672 	"/>
	<polygon fill="#A14118" points="2400.574,928.602 2405.848,955.63 2419.691,971.231 2417.054,989.029 2442.667,1012.335 
		2459.041,1015.041 2469.478,1007.309 2480.302,1013.108 2515.867,998.418 2527.464,981.795 2517.678,959.871 2496.485,957.623 
		2499.114,943.729 2488.663,921.456 2461.282,911.444 2442.667,917.237 2427.363,913.487 	"/>
	<polygon fill="#A14118" points="2425.15,957.365 2432.867,979.273 2449.797,985.497 2462.245,980.02 2442.667,974.262 	"/>
	<polygon fill="#A14118" points="2400.574,928.602 2405.848,955.63 2419.691,971.231 2417.054,989.029 2442.667,1012.335 
		2459.041,1015.041 2469.478,1007.309 2480.302,1013.108 2515.867,998.418 2482.203,1004.993 2471.373,995.657 2458.221,1001.446 
		2443.697,997.711 2439.258,983.894 2432.909,991.363 2423.386,984.641 2425.15,965.969 2408.822,953.085 	"/>
	<polygon fill="#A14118" points="2455.068,881.672 2482.615,886.852 2507.931,900.527 2523.269,934.344 2535.466,938.41 
		2535.466,956.15 2523.212,973.29 2537.902,957.827 2537.902,930.381 2520.893,917.237 2513.934,896.362 2484.293,881.672 	"/>
	<polygon fill="#A14118" points="2484.293,881.672 2507.931,900.527 2513.934,896.362 	"/>
	<polygon fill="#A14118" points="2520.893,917.237 2525.07,927.481 2537.902,930.381 	"/>
	<polygon fill="#A14118" points="2523.212,973.29 2513.934,977.909 2527.464,981.795 	"/>
</g>
<g>
	<polygon fill="#7D3312" points="0,1126.808 354.834,1126.808 543.66,1172.386 639.157,1280.907 797.068,1289.588 
		1038.512,1267.884 1240.359,1311.292 1459.57,1480.584 1263.615,1580.422 0,1560.889 	"/>
	<polygon fill="#B0562E" points="0,1126.808 354.834,1126.808 543.66,1172.386 639.157,1280.907 797.068,1289.588 
		1038.512,1267.884 1240.359,1311.292 1459.57,1480.584 1386.718,1517.702 1395.663,1467.497 1343.539,1432.747 1270.638,1463.823 
		1194.714,1468.358 1270.974,1458.951 1328.589,1419.813 1268.623,1447.025 1093.984,1431.952 1267.306,1440.839 1318.468,1411.603 
		1279.325,1382.827 1260.926,1399.622 1216.509,1401.344 1259.407,1395.42 1274.217,1377.316 1234.526,1344.861 1166.595,1370.736 
		1036.056,1315.444 1146.786,1329.267 1036.056,1285.823 792.385,1313.469 630.457,1299.646 606.715,1272.987 495.189,1286.81 
		387.609,1267.884 495.189,1275.949 587.167,1257.189 501.113,1262.126 431.946,1247.316 504.075,1252.252 572.047,1241.391 
		536.658,1220.657 473.467,1218.682 523.822,1191.096 449.499,1203.134 348.072,1142.655 	"/>
</g>
<g>
	<polygon fill="#3C1006" points="0,1267.884 426.458,1339.508 558.852,1406.79 1063.072,1456.223 1379.265,1652.046 
		1535.534,1721.499 1594.135,1800 0,1800 	"/>
	<polygon fill="#360E05" points="0,1290.767 362.071,1377.316 449.499,1443.603 657.233,1526.665 440.358,1507.873 
		372.952,1546.204 756.302,1569.754 904.663,1611.713 826.635,1652.656 681.588,1669.034 746.063,1696.875 869.922,1744.37 
		1050.056,1744.37 1125.414,1800 0,1800 	"/>
	<polygon fill="#632D29" points="1594.135,1800 1535.534,1721.499 1379.265,1652.046 1063.072,1456.223 558.852,1406.79 
		426.458,1339.508 522.09,1432.865 851.63,1458.272 1020.357,1504.803 952.45,1514.644 905.703,1511.692 953.927,1530.391 
		940.148,1538.756 1062.184,1538.756 1131.522,1523.252 1193.44,1561.012 1102.609,1580.422 904.663,1580.422 1102.609,1598.703 
		1202.024,1598.703 1154.387,1619.809 1068.915,1616.391 1165.05,1630.615 1192.517,1630.615 1160.636,1643.859 993.871,1643.859 
		1170.936,1655.14 1261.492,1607.995 1286.102,1627.06 1257.261,1664.459 1234.208,1677.212 1271.485,1667.892 1304.348,1636.992 
		1377.903,1672.387 1438.051,1696.67 1497.324,1729.191 1354.247,1756.039 1220.648,1755.933 1352.912,1761.715 1527.724,1743.885 
		1452.616,1778.784 1358.694,1781.229 1451.206,1787.011 1547.473,1752.787 	"/>
</g>
<g>
	<polygon fill="#3C1006" points="869.722,1095.749 857.523,1222.726 881.198,1483.395 836.668,1486.108 827.239,1215.552 
		842.226,1083.964 	"/>
	<polygon fill="#3C1006" points="836.676,1213.545 770.853,1161.932 763.54,1128.498 753.719,1125.991 762.704,1169.768 
		835.631,1239.456 	"/>
	<polygon fill="#3C1006" points="899.562,1233.555 856.929,1285.036 861.318,1311.925 903.951,1242.333 	"/>
	<polygon fill="#611A09" points="837.301,1170.715 728.52,1121.598 702.983,1051.8 640.56,1007.853 640.56,916.082 694.471,864.38 
		678.865,835.944 721.426,780.364 851.947,731.247 891.67,750.636 929.975,724.784 990.064,733.832 1084.062,811.755 
		1074.385,871.266 1125.189,923.43 1144.543,1013.799 1065.484,1102.816 986.723,1120.305 944.553,1170.715 	"/>
	<polygon fill="#521608" points="694.471,864.38 640.56,916.082 640.56,1007.853 702.983,1051.8 728.52,1121.598 837.301,1170.715 
		944.553,1170.715 986.723,1120.305 1065.484,1102.816 994.727,1075.24 1011.645,1029.255 976.682,967.98 948.487,960.085 
		937.209,897.348 871.808,856.081 804.128,861.966 742.098,887.495 	"/>
	<polygon fill="#450F03" points="640.56,916.082 640.56,1007.853 702.983,1051.8 728.52,1121.598 837.301,1170.715 
		944.553,1170.715 986.723,1120.305 936.817,1146.107 875.913,1131.832 871.808,1073.123 822.622,1087.106 775.992,1073.123 
		774.089,1018.589 726.876,1017.692 672.265,991.943 	"/>
	<polygon fill="#8C3E0D" points="721.426,780.364 851.947,748.666 881.932,758.981 939.41,745.114 985.57,758.981 1049.681,837.567 
		1049.681,904.242 1114.647,936.725 1123.195,1013.659 1065.484,1102.816 1144.543,1013.799 1125.189,923.43 1074.385,871.266 
		1084.062,811.755 990.064,733.832 929.975,724.784 891.67,750.636 851.947,731.247 	"/>
	<polygon fill="#CC8916" points="851.947,731.247 881.932,758.981 891.67,750.636 	"/>
	<polygon fill="#CC8916" points="990.064,733.832 1063.094,819.442 1084.062,811.755 	"/>
	<polygon fill="#CC8916" points="1074.385,871.266 1071.153,900.031 1125.189,923.43 	"/>
</g>
<g>
	<g>
		<polygon fill="#3C1006" points="431.946,833.01 415.006,1047.188 346.358,1272.258 346.358,1344.861 201.152,1344.861 
			372.952,1035.088 393.764,813.132 		"/>
		<polygon fill="#3C1006" points="505.198,927.195 507.078,917.092 520.787,892.456 501.937,916.748 498.403,929.877 
			416.111,962.343 412.146,979.809 515.988,932.856 549.917,909.552 		"/>
		<polygon fill="#3C1006" points="259.862,837.322 298.435,946.027 388.73,1004.762 378.21,1059.991 278.974,952.163 		"/>
	</g>
	<polygon fill="#611A09" points="484.669,216.689 634.859,291.121 670.117,396.894 756.302,463.491 756.302,602.562 
		681.869,680.912 703.415,724.004 644.653,808.23 464.448,882.663 409.604,853.281 356.717,892.456 273.755,878.745 
		143.976,760.661 157.336,670.477 87.193,591.427 60.472,454.481 169.626,319.584 278.368,293.08 336.59,216.689 	"/>
	<polygon fill="#521608" points="60.472,454.481 87.193,591.427 157.336,670.477 143.976,760.661 273.755,878.745 356.717,892.456 
		409.604,853.281 464.448,882.663 644.653,808.23 703.415,724.004 653.828,612.916 546.446,601.527 559.764,531.124 506.81,418.272 
		368.074,367.541 273.755,396.894 196.208,377.894 	"/>
	<polygon fill="#450F03" points="184.995,600.218 224.1,711.227 309.88,742.763 372.952,715.011 273.755,685.835 	"/>
	<polygon fill="#450F03" points="60.472,454.481 87.193,591.427 157.336,670.477 143.976,760.661 273.755,878.745 356.717,892.456 
		409.604,853.281 464.448,882.663 644.653,808.23 474.08,841.548 419.206,794.243 352.563,823.572 278.974,804.65 256.478,734.639 
		224.311,772.483 176.06,738.424 184.995,643.814 102.265,578.534 	"/>
	<polygon fill="#8C3E0D" points="336.59,216.689 476.165,242.936 604.443,312.224 682.159,483.574 743.957,504.173 743.957,594.061 
		681.869,680.912 756.302,602.562 756.302,463.491 670.117,396.894 634.859,291.121 484.669,216.689 	"/>
	<polygon fill="#CC8916" points="484.669,216.689 604.443,312.224 634.859,291.121 	"/>
	<polygon fill="#CC8916" points="670.117,396.894 691.283,448.801 756.302,463.491 	"/>
	<polygon fill="#CC8916" points="683.441,679.257 634.859,704.314 703.415,724.004 	"/>
</g>
<g>
	<g>
		<polygon fill="#A14118" points="2270.456,1031.412 2064.506,1183.239 1780.099,1289.666 1626.454,1415.472 1802.451,1466.879 
			1884.288,1398.214 2072.938,1374.328 2291.773,1304.644 2767.173,1292.57 2850,1253.331 2850,948.657 		"/>
		<polygon fill="#DB6532" points="1626.454,1415.472 1780.099,1289.666 2064.506,1183.239 2270.456,1031.412 2850,948.657 
			2280.23,1056.776 2414.255,1060.055 2538.127,1056.776 2419.98,1077.655 2280.23,1086.51 2392.733,1105.446 2470.838,1105.446 
			2390.499,1114.544 2232.344,1091.487 2070.429,1191.91 2107.947,1207.768 2164.899,1207.768 2076.326,1238.99 1976.578,1233.674 
			1797.369,1297.461 1866.471,1311.129 2003.156,1305.054 1864.193,1318.723 1778.385,1315.685 1862.674,1331.632 
			1933.295,1326.316 1859.637,1339.508 1760.92,1339.508 1683.466,1391.621 1745.733,1404.53 1792.813,1407.568 1723.712,1423.514 
			1673.594,1411.365 1733.457,1446.726 		"/>
	</g>
	<g>
		<polygon fill="#7D3312" points="2767.173,1292.57 2291.773,1304.644 2072.938,1374.328 1884.288,1398.214 1758.227,1503.878 
			1758.227,1555.469 2176.217,1768.946 2850,1800 2850,1253.331 		"/>
		<polygon fill="#732F11" points="2850,1355.909 2593.643,1378.356 2651.727,1439.041 2481.81,1460.714 2689.005,1468.516 
			2741.888,1457.246 2684.589,1494.946 2388.182,1507.528 2450.959,1533.942 2264.252,1619.243 1830.342,1580.422 
			2176.217,1768.946 2375.065,1800 2850,1800 		"/>
		<polygon fill="#B0562E" points="2776.084,1317.839 2850,1253.331 2767.173,1292.57 2291.773,1304.644 2072.938,1374.328 
			1884.288,1398.214 1758.227,1503.878 1758.227,1551.353 1830.342,1580.422 1799.215,1517.702 1888.762,1440.534 
			2043.747,1494.946 2274.503,1494.946 2238.227,1469.809 2300.907,1447.422 2130.074,1448.304 2089.666,1425.84 2138.436,1437.936 
			2388.037,1425.84 2142.769,1423.248 2121.211,1397.328 2206.705,1378.32 2348.645,1393.872 2450.959,1391.28 2348.783,1380.912 
			2245.585,1355.855 2342.324,1367.952 2388.037,1364.495 2259.409,1346.351 2300.907,1314.383 		"/>
	</g>
	<g>
		<polygon fill="#3C1006" points="2284.99,1800 2486.288,1696.817 2850,1580.422 2850,1800 		"/>
		<polygon fill="#632D29" points="2284.99,1800 2486.288,1696.817 2850,1580.422 2766.984,1656.516 2680.572,1681.647 
			2761,1700.795 2850,1710.369 2716.72,1718.746 2617.39,1701.992 2693.982,1740.288 2747.836,1745.075 2691.244,1747.041 
			2583.233,1718.464 2506.705,1736.869 2484.909,1763.024 2555.625,1771.743 2677.198,1774.164 2553.203,1780.461 
			2480.065,1776.102 2550.297,1794.023 2598.732,1792.57 2544,1800.804 		"/>
	</g>
</g>
<g>
	<polygon fill="#3C1006" points="2730.623,1296.316 2825.891,1457.214 2825.891,1667.863 2850,1667.863 2850,1411.254 
		2759.203,1278.321 	"/>
	<polygon fill="#611A09" points="2850.053,909.496 2723.173,851.682 2677.392,870.311 2636.611,838.577 2568.89,844.131 
		2458.135,923.962 2464.435,991.085 2403.815,1045.443 2375.396,1144.798 2456.87,1250.082 2543.417,1275.544 2586.654,1334.969 
		2706.309,1343.073 2831.379,1296.495 2850.053,1254.494 	"/>
	<polygon fill="#521608" points="2850.053,1027.773 2833.919,1034.297 2766.646,1001.129 2691.583,989.45 2615.502,1030.547 
		2598.18,1099.687 2566.128,1106.364 2522.493,1172.083 2537.892,1224.664 2456.87,1250.082 2543.417,1275.544 2586.654,1334.969 
		2706.309,1343.073 2831.379,1296.495 2850.053,1254.494 	"/>
	<polygon fill="#450F03" points="2850.053,1177.182 2841.063,1180.699 2788.324,1178.132 2782.08,1238.828 2729.002,1250.905 
		2675.184,1231.589 2666.169,1296.777 2597.144,1308.1 2543.417,1275.544 2586.654,1334.969 2706.309,1343.073 2831.379,1296.495 
		2850.053,1254.494 	"/>
	<polygon fill="#8C3E0D" points="2850.053,909.496 2723.173,851.682 2677.392,870.311 2636.611,838.577 2568.89,844.131 
		2458.135,923.962 2464.435,991.085 2403.815,1045.443 2375.396,1144.798 2456.87,1250.082 2399.222,1146.255 2414.572,1061.072 
		2489.504,1029.741 2494.542,955.356 2572.003,872.527 2624.548,860.544 2687.626,880.357 2721.857,871.116 2850.053,911.597 	"/>
	<polygon fill="#CC8916" points="2723.173,851.682 2687.626,880.357 2677.392,870.311 	"/>
	<polygon fill="#CC8916" points="2568.89,844.131 2480.947,934.122 2458.135,923.962 	"/>
	<polygon fill="#CC8916" points="2464.435,991.085 2465.867,1023.42 2403.815,1045.443 	"/>
</g>
<g opacity="0.4">
	
		<line fill="none" stroke="#FFFFFF" stroke-width="10" stroke-linecap="round" stroke-linejoin="round" stroke-miterlimit="10" x1="1650.583" y1="1117.823" x2="1875.965" y2="1117.823"/>
	
		<line fill="none" stroke="#FFFFFF" stroke-width="10" stroke-linecap="round" stroke-linejoin="round" stroke-miterlimit="10" x1="1339.544" y1="1117.823" x2="1451.06" y2="1117.823"/>
	
		<line fill="none" stroke="#FFFFFF" stroke-width="10" stroke-linecap="round" stroke-linejoin="round" stroke-miterlimit="10" x1="1536.139" y1="1117.823" x2="1579.596" y2="1117.823"/>
	
		<line fill="none" stroke="#FFFFFF" stroke-width="10" stroke-linecap="round" stroke-linejoin="round" stroke-miterlimit="10" x1="1395.302" y1="1577.955" x2="1451.06" y2="1577.955"/>
	
		<line fill="none" stroke="#FFFFFF" stroke-width="10" stroke-linecap="round" stroke-linejoin="round" stroke-miterlimit="10" x1="1527.479" y1="1577.955" x2="1695.929" y2="1577.955"/>
	
		<line fill="none" stroke="#FFFFFF" stroke-width="10" stroke-linecap="round" stroke-linejoin="round" stroke-miterlimit="10" x1="1565.286" y1="1166.261" x2="1826.572" y2="1166.261"/>
	
		<line fill="none" stroke="#FFFFFF" stroke-width="10" stroke-linecap="round" stroke-linejoin="round" stroke-miterlimit="10" x1="1895.286" y1="1166.261" x2="1951.169" y2="1166.261"/>
	
		<line fill="none" stroke="#FFFFFF" stroke-width="10" stroke-linecap="round" stroke-linejoin="round" stroke-miterlimit="10" x1="1905.253" y1="1714.171" x2="1679.871" y2="1714.171"/>
	
		<line fill="none" stroke="#FFFFFF" stroke-width="10" stroke-linecap="round" stroke-linejoin="round" stroke-miterlimit="10" x1="1572.346" y1="1386.27" x2="1513.245" y2="1386.27"/>
	
		<line fill="none" stroke="#FFFFFF" stroke-width="10" stroke-linecap="round" stroke-linejoin="round" stroke-miterlimit="10" x1="1647.103" y1="1446.726" x2="1617.552" y2="1446.726"/>
	
		<line fill="none" stroke="#FFFFFF" stroke-width="10" stroke-linecap="round" stroke-linejoin="round" stroke-miterlimit="10" x1="1505.275" y1="1517.702" x2="1475.724" y2="1517.702"/>
	
		<line fill="none" stroke="#FFFFFF" stroke-width="10" stroke-linecap="round" stroke-linejoin="round" stroke-miterlimit="10" x1="1790.995" y1="1648.591" x2="1725.46" y2="1648.591"/>
	
		<line fill="none" stroke="#FFFFFF" stroke-width="10" stroke-linecap="round" stroke-linejoin="round" stroke-miterlimit="10" x1="1581.496" y1="1446.726" x2="1451.06" y2="1446.726"/>
	
		<line fill="none" stroke="#FFFFFF" stroke-width="10" stroke-linecap="round" stroke-linejoin="round" stroke-miterlimit="10" x1="1682.213" y1="1272.74" x2="1570.696" y2="1272.74"/>
	
		<line fill="none" stroke="#FFFFFF" stroke-width="10" stroke-linecap="round" stroke-linejoin="round" stroke-miterlimit="10" x1="1645.01" y1="1318.131" x2="1502.49" y2="1318.131"/>
	
		<line fill="none" stroke="#FFFFFF" stroke-width="10" stroke-linecap="round" stroke-linejoin="round" stroke-miterlimit="10" x1="1621.044" y1="1648.591" x2="1509.527" y2="1648.591"/>
	
		<line fill="none" stroke="#FFFFFF" stroke-width="10" stroke-linecap="round" stroke-linejoin="round" stroke-miterlimit="10" x1="1828.812" y1="1215.266" x2="1714.627" y2="1215.266"/>
	
		<line fill="none" stroke="#FFFFFF" stroke-width="10" stroke-linecap="round" stroke-linejoin="round" stroke-miterlimit="10" x1="1498.58" y1="1272.74" x2="1451.06" y2="1272.74"/>
	
		<line fill="none" stroke="#FFFFFF" stroke-width="10" stroke-linecap="round" stroke-linejoin="round" stroke-miterlimit="10" x1="1669.83" y1="1517.702" x2="1594.825" y2="1517.702"/>
	
		<line fill="none" stroke="#FFFFFF" stroke-width="10" stroke-linecap="round" stroke-linejoin="round" stroke-miterlimit="10" x1="1621.143" y1="1215.266" x2="1359.856" y2="1215.266"/>
	
		<line fill="none" stroke="#FFFFFF" stroke-width="10" stroke-linecap="round" stroke-linejoin="round" stroke-miterlimit="10" x1="1414.259" y1="1170.715" x2="1274.801" y2="1170.715"/>
</g>
</svg>
