<svg xmlns="http://www.w3.org/2000/svg" width="1553.074" height="369.501" viewBox="0 0 1553.074 369.501">
  <g id="Group_4091" data-name="Group 4091" transform="translate(-191.279 -313.782)">
    <g id="Capa_1" data-name="Capa 1">
      <g id="Group_4086" data-name="Group 4086">
        <path id="Path_11440" data-name="Path 11440" d="M367.593,313.79c-96.862-.909-174.69,76.393-176.287,170.813-1.7,100.729,79.859,178.059,174.055,177.445,95.871.341,172.971-76.666,174.262-171.212C541.015,388.964,458.675,314.643,367.593,313.79ZM490.585,471.525c-4.992,6.869-10.214,13.57-15.206,20.439-9.576,13.176-12.817,28.211-13.06,44.21-.7,45.876-28.952,80.443-73.833,90.553-29.721,6.7-56.819-6.525-69.826-34.04a22.766,22.766,0,0,0-2.441-4.323c-27.8-35.668-51.851-73.857-75.462-112.339-3.461-5.64-6.092-11.434-4.418-18.356,3.795-15.692,21.289-21.374,34.324-11.028,2.457,1.95,4.64,4.246,6.949,6.382l.635-.342c-4.66-10.982-9.6-21.853-13.908-32.973-5.642-14.577,4.6-29.126,19.473-27.939,7.889.629,13.444,5.194,17.721,11.6,6.076,9.1,12.232,18.142,18.856,26.885-4.393-17.693-8.865-35.366-13.134-53.088a24.808,24.808,0,0,1,2.455-17.916c3.507-6.548,9.041-10.322,16.451-10.422,8.86-.119,15.431,4.579,19.208,12.167,3.609,7.253,6.055,15.093,8.9,22.718,2.573,6.906,4.99,13.87,8.14,20.624.43-8.246.9-16.491,1.279-24.74.51-11.062,9.393-21,19.662-21.9,11.835-1.045,20.86,5.275,23.475,16.915A58.665,58.665,0,0,1,407.916,387c.214,31.995.385,63.991.348,95.987,0,3.815,1.117,5.336,4.736,6.641a58.418,58.418,0,0,1,14.548,7.448,24.845,24.845,0,0,1,8.052,29.515c-3.817,9.311-13.43,15.26-23.012,14.243-10.392-1.1-18.646-9.43-20.8-21.282-.767-4.212-1.045-8.514-1.566-12.939a8.9,8.9,0,0,0-2.521-.2c-27.23,6.21-47.927,23.134-54.913,50.65-5.861,23.082,8.4,47.092,30.961,52.046,13.35,2.93,26.16-.018,38.186-6.154,20.372-10.394,35.408-25.412,40.206-48.609a94.656,94.656,0,0,0,2.353-21.265c-.6-24.037,9.232-43.875,23.631-62.084,2.376-3.005,4.86-5.937,7.043-9.078,2.77-3.985,1.821-6.218-2.9-7.613-6.37-1.882-12.2-.053-17.711,2.889-7.647,4.082-12.6,10.684-16.318,18.352-2.487,5.136-6.29,7.383-10.568,6.426-5.392-1.205-8.777-6.487-6.683-11.942,8.417-21.921,31.2-39.141,55.838-33.359C490.374,439.855,502.262,455.457,490.585,471.525Z" fill="#7d60f5"/>
        <path id="Path_11441" data-name="Path 11441" d="M390.041,487.322c0-13.6.041-26.73-.01-39.855q-.125-31.736-.363-63.47a13.561,13.561,0,0,0-.517-4.9c-.55-1.35-2.313-3.47-2.927-3.279a6.41,6.41,0,0,0-3.8,3.278,25.037,25.037,0,0,0-1.036,7.361c-.838,16.953-1.6,33.909-2.4,50.863-.236,4.983-.406,9.974-.832,14.942-.419,4.889-3.6,8.469-8,8.883-4.7.442-7.968-1.8-9.7-6.206-.608-1.546-1.175-3.108-1.733-4.672-9.03-25.357-18.012-50.732-27.149-76.05-.927-2.569-2.778-4.8-4.2-7.192l-2.159.648c.231,3.314-.031,6.752.769,9.923,7.789,30.912,15.768,61.775,23.649,92.664.608,2.385,1.894,5.3,1.068,7.185-1.273,2.9-3.632,6.14-6.376,7.406-4.234,1.955-7.966-.456-10.632-4.239q-23.021-32.666-46.114-65.28a71.084,71.084,0,0,0-4.827-5.541l-1.638.978a33.767,33.767,0,0,0,1.484,5.818q17.445,38.644,35.045,77.219c2.756,6.049,2.183,10.465-1.929,13.4-4.22,3.015-8.4,2.255-13.22-2.626q-20-20.277-39.937-40.623A23.494,23.494,0,0,0,258.4,460.4c-.816-.508-2.711-.724-3.034-.281a4.821,4.821,0,0,0-.647,3.493,11.815,11.815,0,0,0,1.9,3.48c10.9,17.333,21.656,34.759,32.771,51.953,7.837,12.122,16.165,23.927,24.741,36.562C324.8,515.467,351.778,494.676,390.041,487.322Z" fill="#7d60f5"/>
        <path id="Path_11442" data-name="Path 11442" d="M416.374,522.144c2.966-1.574,4.361-4.71,2.239-7.557s-5.284-4.958-7.988-7.391l-1.9,1.3c.571,3.375.8,6.857,1.822,10.092C411.328,521.061,413,523.935,416.374,522.144Z" fill="#7d60f5"/>
      </g>
    </g>
    <g id="Capa_4" data-name="Capa 4">
      <g id="Group_4087" data-name="Group 4087">
        <path id="Path_11443" data-name="Path 11443" d="M729.729,616.186a122.115,122.115,0,1,1,87.8-206.984,13.845,13.845,0,0,1-19.909,19.246A94.424,94.424,0,1,0,792.6,564.521a13.845,13.845,0,0,1,18.445,20.652A121.921,121.921,0,0,1,729.729,616.186Z" fill="#515151"/>
      </g>
      <g id="Group_4089" data-name="Group 4089">
        <g id="Group_4088" data-name="Group 4088">
          <path id="Path_11444" data-name="Path 11444" d="M1066.761,615.016c-20.3,0-39.514-7.862-54.807-22.475a91.148,91.148,0,0,1-27.8-65.7c0-48.619,38.453-88.173,85.72-88.173s85.72,39.554,85.72,88.173c0,.062,0,.125,0,.188l-.059,4.32a13.844,13.844,0,0,1-13.844,13.657H1014.458a62.338,62.338,0,0,0,16.626,27.516,55.954,55.954,0,0,0,39.979,15.1c24.75-1.125,29.585-1.716,52.766-12.637a13.845,13.845,0,1,1,11.8,25.049c-28.191,13.281-40.3,14.546-65.126,14.962C1069.316,615.019,1067.941,615.016,1066.761,615.016Zm-54.2-97.7h114.624c-4.4-28.84-28.423-50.957-57.312-50.957S1016.96,488.474,1012.563,517.314Z" fill="#515151"/>
        </g>
      </g>
      <g id="Group_4090" data-name="Group 4090">
        <path id="Path_11445" data-name="Path 11445" d="M1656.146,615.394a88.207,88.207,0,1,1,88.207-88.207A88.307,88.307,0,0,1,1656.146,615.394Zm0-148.723a60.516,60.516,0,1,0,60.517,60.516A60.584,60.584,0,0,0,1656.146,466.671Z" fill="#515151"/>
      </g>
      <path id="Path_11446" data-name="Path 11446" d="M1526.75,438.655c-12.125,0-15.5,9.345-19.586,20.4v0A79.727,79.727,0,0,0,1454.5,438.98c-45.772,0-83.012,39.57-83.012,88.207s37.24,88.207,83.012,88.207a80.32,80.32,0,0,0,57.8-23.782c-.144,12.1-2.432,38.722-22.465,53.273-19.464,14.135-52.508,14.2-95.555.2a13.845,13.845,0,1,0-8.566,26.332q36.486,11.869,65.109,11.867c22.117,0,40.606-5.334,55.283-15.994,31.125-22.6,34.486-61.3,34.486-76.889V452.5A13.845,13.845,0,0,0,1526.75,438.655ZM1454.5,587.7c-30.505,0-55.322-27.148-55.322-60.517s24.817-60.516,55.322-60.516c29.2,0,53.172,24.879,55.171,56.273l.129,3.287c.005.32.022.636.022.956C1509.822,562.253,1486.556,587.7,1454.5,587.7Z" fill="#515151"/>
      <path id="Path_11447" data-name="Path 11447" d="M1276.933,439.871a79.094,79.094,0,0,0-51.407,8.575,75.306,75.306,0,0,0-10.46,7.061l.011-.036c-2.16-6.471-7.764-13.191-15.41-13.191a13.845,13.845,0,0,0-13.845,13.845V598.287a13.845,13.845,0,1,0,27.69,0V513.625c.127-4.093.494-8.809,1.446-11.672,10.368-31.191,37.17-38.162,57.4-34.773,17.581,2.945,36.5,15.723,36.5,36.82v94.287a13.845,13.845,0,1,0,27.69,0V504C1336.552,472.121,1312.036,445.75,1276.933,439.871Z" fill="#515151"/>
      <path id="Path_11448" data-name="Path 11448" d="M855.917,609.273q-3.934-3.588-3.931-10.084V382.125q0-6.489,3.931-10.084A14.369,14.369,0,0,1,866,368.451a13.914,13.914,0,0,1,9.742,3.59q3.926,3.588,3.931,10.084V599.189q0,6.5-3.931,10.084A13.913,13.913,0,0,1,866,612.862,14.368,14.368,0,0,1,855.917,609.273Z" fill="#515151"/>
      <path id="Path_11449" data-name="Path 11449" d="M931.973,400.341q-5.127-4.783-5.127-12.648a16.09,16.09,0,0,1,5.127-12.306Q937.1,370.6,945.3,370.6t13.331,4.785a16.087,16.087,0,0,1,5.128,12.306q0,7.867-5.128,12.648T945.3,405.126Q937.1,405.126,931.973,400.341ZM935.22,609.03q-3.933-3.588-3.93-10.084V454.692q0-6.489,3.93-10.084a14.371,14.371,0,0,1,10.085-3.589,13.764,13.764,0,0,1,9.913,3.589q3.758,3.59,3.76,10.084V598.946q0,6.843-3.76,10.255a14.186,14.186,0,0,1-9.913,3.418A14.371,14.371,0,0,1,935.22,609.03Z" fill="#515151"/>
    </g>
  </g>
</svg>
