<svg xmlns="http://www.w3.org/2000/svg" xmlns:xlink="http://www.w3.org/1999/xlink" width="275.821" height="149.866" viewBox="0 0 275.821 149.866"><defs><linearGradient id="a" x1="0.5" x2="0.5" y2="1" gradientUnits="objectBoundingBox"><stop offset="0" stop-color="#ec1842"/><stop offset="0" stop-color="#151B26"/><stop offset="0" stop-color="#590b91"/><stop offset="1" stop-color="#6c63ff"/><stop offset="1" stop-color="#b8b8b8"/></linearGradient></defs><g transform="translate(-136 -75)"><g transform="translate(136 75)"><path d="M2550.493,1478.766,2526,1458.311l4.786-4.091,4.786-4.091,20.129,16.6,20.129,16.714,15.484-12.857,15.484-12.857-15.062-12.506-15.2-12.623,4.645-3.74,4.5-3.857,19.989,16.714,20.129,16.6-24.634,20.454c-13.513,11.221-24.915,20.454-25.338,20.454S2564.007,1489.987,2550.493,1478.766Z" transform="translate(-2437.923 -1349.354)" fill="url(#a)"/><path d="M1905.264,1375.13l30.265-25.13,15.062,12.506,15.2,12.623-4.927,4.091-4.927,4.091-9.572-7.948c-5.208-4.325-10.135-7.831-10.839-7.831-.845,0-10.276,7.364-21.115,16.364l-19.707,16.364H1875Z" transform="translate(-1875 -1283.013)" fill="url(#a)"/><path d="M2175.713,1648.182l9.853-8.182,4.786,4.091,4.927,4.091-4.786,4.091c-4.5,3.857-5.208,4.091-14.639,4.091H2166Z" transform="translate(-2125.038 -1539.145)" fill="url(#a)"/><path d="M2855.326,1111.7,2810,1073.948l4.927-3.974,5.067-3.974,50.253,41.727,50.253,41.727h-19.707Z" transform="translate(-2685.501 -1032.154)" fill="url(#a)"/><path d="M3280.191,1247.4,3245,1218.182l4.927-4.091,4.927-4.091,40.118,33.312,40.118,33.311h-19.707Z" transform="translate(-3059.268 -1159.356)" fill="url(#a)"/><path d="M2414.769,1242.935,2380,1213.948l4.927-3.974,4.927-3.974,35.191,29.1,35.191,29.1-4.5,3.857c-2.534,2.1-4.786,3.857-5.349,3.857C2449.96,1271.922,2433.913,1258.831,2414.769,1242.935Z" transform="translate(-2311.409 -1155.82)" fill="url(#a)"/><path d="M2544.707,832.857,2525,816.493l25.056-20.805L2574.971,775l24.915,20.688,24.916,20.688-4.786,4.208-4.786,4.091-20.129-16.6-20.13-16.714-15.484,12.857L2544,817.078l15.062,12.506,15.062,12.623-4.082,3.506c-2.252,1.87-4.363,3.506-4.927,3.506C2564.7,849.22,2555.546,841.857,2544.707,832.857Z" transform="translate(-2437.058 -775)" fill="url(#a)"/></g></g></svg>