<?xml version="1.0"?>
<svg xmlns="http://www.w3.org/2000/svg" xmlns:xlink="http://www.w3.org/1999/xlink" version="1.1" id="Capa_1" x="0px" y="0px" viewBox="0 0 512 512" style="enable-background:new 0 0 512 512;" xml:space="preserve" width="512px" height="512px" class=""><g><rect x="8.5" y="56.25" style="fill:#FDE21B" width="343.12" height="48.75" data-original="#FDE21B" class=""/><rect x="98.5" y="138.75" style="fill:#FF6969" width="131.25" height="48.75" data-original="#FF6969" class=""/><rect x="312.25" y="305.62" style="fill:#FDE21B" width="121.87" height="48.75" data-original="#FDE21B" class=""/><g>
	<rect x="222.25" y="388.12" style="fill:#6C63FF" width="155.62" height="48.75" data-original="#00A1DA" class="" data-old_color="#6c63ff"/>
	<rect x="147.25" y="223.12" style="fill:#6C63FF" width="354.37" height="48.75" data-original="#00A1DA" class="" data-old_color="#6c63ff"/>
</g><rect x="8.5" y="382.5" style="fill:#FFFFFF" width="180" height="120" data-original="#FFFFFF" class=""/><rect x="8.5" y="382.5" style="fill:#B9ECFF;" width="97.5" height="120" data-original="#B9ECFF" class=""/><rect x="49.113" y="251.636" transform="matrix(-1.000000e-004 -1 1 -1.000000e-004 19.3698 537.6397)" style="fill:#FE3934;" width="458.73" height="15" data-original="#FE3934" class=""/><rect x="271" y="497" width="15" height="15" data-original="#000000" class="active-path" style="fill:#EAF0F0" data-old_color="#E8EEEE"/><polygon points="359.125,112.5 301,112.5 301,97.5 344.125,97.5 344.125,67.5 301,67.5 301,52.5 359.125,52.5 " data-original="#000000" class="active-path" style="fill:#EAF0F0" data-old_color="#E8EEEE"/><polygon points="256,112.5 1,112.5 1,52.5 256,52.5 256,67.5 16,67.5 16,97.5 256,97.5 " data-original="#000000" class="active-path" style="fill:#EAF0F0" data-old_color="#E8EEEE"/><path d="M239.125,195H91v-60h148.125V195z M106,180h118.125v-30H106V180z" data-original="#000000" class="active-path" style="fill:#EAF0F0" data-old_color="#E8EEEE"/><polygon points="511,277.5 301,277.5 301,262.5 496,262.5 496,232.5 301,232.5 301,217.5 511,217.5 " data-original="#000000" class="active-path" style="fill:#EAF0F0" data-old_color="#E8EEEE"/><polygon points="256,277.5 139.75,277.5 139.75,217.5 256,217.5 256,232.5 154.75,232.5 154.75,262.5 256,262.5 " data-original="#000000" class="active-path" style="fill:#EAF0F0" data-old_color="#E8EEEE"/><path d="M441.625,360h-135v-60h135V360z M321.625,345h105v-30h-105V345z" data-original="#000000" class="active-path" style="fill:#EAF0F0" data-old_color="#E8EEEE"/><polygon points="383.5,442.5 301,442.5 301,427.5 368.5,427.5 368.5,397.5 301,397.5 301,382.5 383.5,382.5 " data-original="#000000" class="active-path" style="fill:#EAF0F0" data-old_color="#E8EEEE"/><polygon points="256,442.5 216.625,442.5 216.625,382.5 256,382.5 256,397.5 231.625,397.5 231.625,427.5 256,427.5 " data-original="#000000" class="active-path" style="fill:#EAF0F0" data-old_color="#E8EEEE"/><rect x="270.81" width="15" height="15" data-original="#000000" class="active-path" style="fill:#EAF0F0" data-old_color="#E8EEEE"/><path d="M196,510H1V375h195V510z M16,495h165V390H16V495z" data-original="#000000" class="active-path" style="fill:#EAF0F0" data-old_color="#E8EEEE"/><rect x="31" y="405" style="fill:#FF6969" width="15" height="15" data-original="#FF6969" class=""/><rect x="31" y="435" style="fill:#FDE21B" width="15" height="15" data-original="#FDE21B" class=""/><rect x="31" y="465" style="fill:#1FB5F3" width="15" height="15" data-original="#1FB5F3" class=""/><rect x="61" y="405" width="105" height="15" data-original="#000000" class="active-path" style="fill:#EAF0F0" data-old_color="#E8EEEE"/><rect x="61" y="435" width="75" height="15" data-original="#000000" class="active-path" style="fill:#EAF0F0" data-old_color="#E8EEEE"/><rect x="61" y="465" style="fill:#FFFFFF" width="15" height="15" data-original="#FFFFFF" class=""/><rect x="91" y="465" width="22.5" height="15" data-original="#000000" class="active-path" style="fill:#EAF0F0" data-old_color="#E8EEEE"/><rect x="128.5" y="465" width="37.5" height="15" data-original="#000000" class="active-path" style="fill:#EAF0F0" data-old_color="#E8EEEE"/><rect x="151" y="435" width="15" height="15" data-original="#000000" class="active-path" style="fill:#EAF0F0" data-old_color="#E8EEEE"/></g> </svg>
